<svg width="632" height="632" viewBox="0 0 632 632" fill="none" xmlns="http://www.w3.org/2000/svg">
<rect width="632" height="632" fill="#F0F0F0"/>
<g filter="url(#filter0_d_3_9)">
<rect width="623" height="624" transform="translate(4.5)" fill="white"/>
<path d="M53.2305 99.9054C53.0942 98.7539 52.5411 97.86 51.5714 97.2236C50.6017 96.5873 49.4123 96.2691 48.0032 96.2691C46.9729 96.2691 46.0714 96.4357 45.2987 96.7691C44.5335 97.1024 43.9351 97.5607 43.5032 98.1441C43.079 98.7274 42.8669 99.3903 42.8669 100.133C42.8669 100.754 43.0146 101.288 43.3101 101.735C43.6131 102.174 43.9995 102.542 44.4691 102.837C44.9388 103.125 45.4313 103.364 45.9464 103.553C46.4616 103.735 46.9351 103.883 47.3669 103.996L49.7305 104.633C50.3366 104.792 51.0108 105.012 51.7532 105.292C52.5032 105.572 53.2191 105.955 53.901 106.44C54.5904 106.917 55.1585 107.53 55.6055 108.28C56.0525 109.03 56.276 109.951 56.276 111.042C56.276 112.299 55.9464 113.436 55.2873 114.451C54.6358 115.466 53.6813 116.273 52.4237 116.871C51.1737 117.47 49.6548 117.769 47.8669 117.769C46.2002 117.769 44.757 117.5 43.5373 116.962C42.3252 116.424 41.3707 115.674 40.6737 114.712C39.9843 113.75 39.5941 112.633 39.5032 111.36H42.4123C42.4881 112.239 42.7835 112.966 43.2987 113.542C43.8214 114.11 44.4805 114.534 45.276 114.815C46.079 115.087 46.9426 115.224 47.8669 115.224C48.9426 115.224 49.9085 115.049 50.7646 114.701C51.6207 114.345 52.2987 113.852 52.7987 113.224C53.2987 112.587 53.5487 111.845 53.5487 110.996C53.5487 110.224 53.3328 109.595 52.901 109.11C52.4691 108.625 51.901 108.231 51.1964 107.928C50.4919 107.625 49.7305 107.36 48.9123 107.133L46.0487 106.315C44.2305 105.792 42.7911 105.046 41.7305 104.076C40.6699 103.106 40.1396 101.837 40.1396 100.269C40.1396 98.966 40.4919 97.8297 41.1964 96.86C41.9085 95.8827 42.8631 95.1251 44.0601 94.5873C45.2646 94.0418 46.6093 93.7691 48.0941 93.7691C49.5941 93.7691 50.9275 94.038 52.0941 94.5759C53.2608 95.1062 54.1851 95.8335 54.8669 96.7577C55.5563 97.682 55.9199 98.7312 55.9578 99.9054H53.2305Z" fill="black"/>
<path d="M55.2273 40.9249C54.9773 40.1598 54.6477 39.4742 54.2386 38.8681C53.8371 38.2545 53.3561 37.7317 52.7955 37.2999C52.2424 36.8681 51.6136 36.5386 50.9091 36.3113C50.2045 36.084 49.4318 35.9704 48.5909 35.9704C47.2121 35.9704 45.9583 36.3264 44.8295 37.0386C43.7008 37.7507 42.803 38.7999 42.1364 40.1863C41.4697 41.5727 41.1364 43.2734 41.1364 45.2886C41.1364 47.3037 41.4735 49.0045 42.1477 50.3908C42.822 51.7772 43.7348 52.8264 44.8864 53.5386C46.0379 54.2507 47.3333 54.6067 48.7727 54.6067C50.1061 54.6067 51.2803 54.3227 52.2955 53.7545C53.3182 53.1787 54.1136 52.3681 54.6818 51.3227C55.2576 50.2696 55.5455 49.031 55.5455 47.6067L56.4091 47.7886H49.4091V45.2886H58.2727V47.7886C58.2727 49.7052 57.8636 51.3719 57.0455 52.7886C56.2348 54.2052 55.1136 55.3037 53.6818 56.084C52.2576 56.8567 50.6212 57.2431 48.7727 57.2431C46.7121 57.2431 44.9015 56.7583 43.3409 55.7886C41.7879 54.8189 40.5758 53.4401 39.7045 51.6522C38.8409 49.8643 38.4091 47.7431 38.4091 45.2886C38.4091 43.4477 38.6553 41.7924 39.1477 40.3227C39.6477 38.8454 40.3523 37.5878 41.2614 36.5499C42.1705 35.512 43.2462 34.7166 44.4886 34.1636C45.7311 33.6105 47.0985 33.334 48.5909 33.334C49.8182 33.334 50.9621 33.5196 52.0227 33.8908C53.0909 34.2545 54.0417 34.7734 54.875 35.4477C55.7159 36.1143 56.4167 36.9136 56.9773 37.8454C57.5379 38.7696 57.9242 39.7961 58.1364 40.9249H55.2273Z" fill="black"/>
<path d="M119.665 40.9249H116.847C116.681 40.1143 116.389 39.4022 115.972 38.7886C115.563 38.1749 115.063 37.6598 114.472 37.2431C113.889 36.8189 113.241 36.5007 112.529 36.2886C111.817 36.0764 111.075 35.9704 110.302 35.9704C108.893 35.9704 107.616 36.3264 106.472 37.0386C105.336 37.7507 104.431 38.7999 103.756 40.1863C103.09 41.5727 102.756 43.2734 102.756 45.2886C102.756 47.3037 103.09 49.0045 103.756 50.3908C104.431 51.7772 105.336 52.8264 106.472 53.5386C107.616 54.2507 108.893 54.6067 110.302 54.6067C111.075 54.6067 111.817 54.5007 112.529 54.2886C113.241 54.0764 113.889 53.762 114.472 53.3454C115.063 52.9211 115.563 52.4022 115.972 51.7886C116.389 51.1674 116.681 50.4552 116.847 49.6522H119.665C119.453 50.8416 119.067 51.906 118.506 52.8454C117.946 53.7848 117.249 54.584 116.415 55.2431C115.582 55.8946 114.647 56.3908 113.609 56.7317C112.578 57.0727 111.476 57.2431 110.302 57.2431C108.317 57.2431 106.552 56.7583 105.006 55.7886C103.461 54.8189 102.245 53.4401 101.359 51.6522C100.472 49.8643 100.029 47.7431 100.029 45.2886C100.029 42.834 100.472 40.7128 101.359 38.9249C102.245 37.137 103.461 35.7583 105.006 34.7886C106.552 33.8189 108.317 33.334 110.302 33.334C111.476 33.334 112.578 33.5045 113.609 33.8454C114.647 34.1863 115.582 34.6863 116.415 35.3454C117.249 35.9969 117.946 36.7924 118.506 37.7317C119.067 38.6636 119.453 39.728 119.665 40.9249Z" fill="#0033FF"/>
<path d="M100.938 117.36V94.0873H103.756V104.451H116.165V94.0873H118.984V117.36H116.165V106.951H103.756V117.36H100.938Z" fill="#0033FF"/>
<path d="M60.2647 342.724C60.2647 345.178 59.8215 347.299 58.9352 349.087C58.0488 350.875 56.8329 352.254 55.2875 353.224C53.742 354.193 51.9768 354.678 49.992 354.678C48.0072 354.678 46.242 354.193 44.6965 353.224C43.1511 352.254 41.9352 350.875 41.0488 349.087C40.1625 347.299 39.7193 345.178 39.7193 342.724C39.7193 340.269 40.1625 338.148 41.0488 336.36C41.9352 334.572 43.1511 333.193 44.6965 332.224C46.242 331.254 48.0072 330.769 49.992 330.769C51.9768 330.769 53.742 331.254 55.2875 332.224C56.8329 333.193 58.0488 334.572 58.9352 336.36C59.8215 338.148 60.2647 340.269 60.2647 342.724ZM57.5375 342.724C57.5375 340.708 57.2003 339.008 56.5261 337.621C55.8594 336.235 54.9541 335.186 53.8102 334.474C52.6738 333.762 51.4011 333.405 49.992 333.405C48.5829 333.405 47.3064 333.762 46.1625 334.474C45.0261 335.186 44.1208 336.235 43.4465 337.621C42.7799 339.008 42.4465 340.708 42.4465 342.724C42.4465 344.739 42.7799 346.44 43.4465 347.826C44.1208 349.212 45.0261 350.262 46.1625 350.974C47.3064 351.686 48.5829 352.042 49.992 352.042C51.4011 352.042 52.6738 351.686 53.8102 350.974C54.9541 350.262 55.8594 349.212 56.5261 347.826C57.2003 346.44 57.5375 344.739 57.5375 342.724Z" fill="black"/>
<path d="M55.3524 277.925C55.1024 277.16 54.7729 276.474 54.3638 275.868C53.9622 275.254 53.4812 274.732 52.9206 274.3C52.3675 273.868 51.7388 273.539 51.0342 273.311C50.3297 273.084 49.5569 272.97 48.716 272.97C47.3372 272.97 46.0835 273.326 44.9547 274.039C43.8259 274.751 42.9282 275.8 42.2615 277.186C41.5948 278.573 41.2615 280.273 41.2615 282.289C41.2615 284.304 41.5986 286.004 42.2728 287.391C42.9471 288.777 43.86 289.826 45.0115 290.539C46.163 291.251 47.4585 291.607 48.8979 291.607C50.2312 291.607 51.4054 291.323 52.4206 290.754C53.4433 290.179 54.2388 289.368 54.8069 288.323C55.3827 287.27 55.6706 286.031 55.6706 284.607L56.5342 284.789H49.5342V282.289H58.3979V284.789C58.3979 286.705 57.9888 288.372 57.1706 289.789C56.36 291.205 55.2388 292.304 53.8069 293.084C52.3827 293.857 50.7463 294.243 48.8979 294.243C46.8372 294.243 45.0266 293.758 43.466 292.789C41.913 291.819 40.7009 290.44 39.8297 288.652C38.966 286.864 38.5342 284.743 38.5342 282.289C38.5342 280.448 38.7804 278.792 39.2728 277.323C39.7728 275.845 40.4774 274.588 41.3865 273.55C42.2956 272.512 43.3713 271.717 44.6138 271.164C45.8562 270.611 47.2236 270.334 48.716 270.334C49.9433 270.334 51.0872 270.52 52.1479 270.891C53.216 271.254 54.1668 271.773 55.0001 272.448C55.841 273.114 56.5418 273.914 57.1024 274.845C57.663 275.77 58.0494 276.796 58.2615 277.925H55.3524Z" fill="black"/>
<path d="M101.063 293.925V270.652H103.882V291.425H114.7V293.925H101.063Z" fill="#0033FF"/>
<path d="M101.063 354.36V331.087H115.109V333.587H103.882V341.451H114.382V343.951H103.882V351.86H115.291V354.36H101.063Z" fill="#0033FF"/>
<rect x="259.41" y="82.5" width="288" height="49" rx="13.5" fill="#0033FF" stroke="#0033FF" stroke-width="3"/>
<rect x="375.41" y="19.5" width="57" height="231" rx="13.5" fill="#0033FF" stroke="#0033FF" stroke-width="3"/>
<path d="M43.3214 567.087V590.36H40.5032V567.087H43.3214Z" fill="black"/>
<path d="M55.2273 513.925C54.9773 513.16 54.6477 512.474 54.2386 511.868C53.8371 511.254 53.3561 510.732 52.7955 510.3C52.2424 509.868 51.6136 509.539 50.9091 509.311C50.2045 509.084 49.4318 508.97 48.5909 508.97C47.2121 508.97 45.9583 509.326 44.8295 510.039C43.7008 510.751 42.803 511.8 42.1364 513.186C41.4697 514.573 41.1364 516.273 41.1364 518.289C41.1364 520.304 41.4735 522.004 42.1477 523.391C42.822 524.777 43.7348 525.826 44.8864 526.539C46.0379 527.251 47.3333 527.607 48.7727 527.607C50.1061 527.607 51.2803 527.323 52.2955 526.754C53.3182 526.179 54.1136 525.368 54.6818 524.323C55.2576 523.27 55.5455 522.031 55.5455 520.607L56.4091 520.789H49.4091V518.289H58.2727V520.789C58.2727 522.705 57.8636 524.372 57.0455 525.789C56.2348 527.205 55.1136 528.304 53.6818 529.084C52.2576 529.857 50.6212 530.243 48.7727 530.243C46.7121 530.243 44.9015 529.758 43.3409 528.789C41.7879 527.819 40.5758 526.44 39.7045 524.652C38.8409 522.864 38.4091 520.743 38.4091 518.289C38.4091 516.448 38.6553 514.792 39.1477 513.323C39.6477 511.845 40.3523 510.588 41.2614 509.55C42.1705 508.512 43.2462 507.717 44.4886 507.164C45.7311 506.611 47.0985 506.334 48.5909 506.334C49.8182 506.334 50.9621 506.52 52.0227 506.891C53.0909 507.254 54.0417 507.773 54.875 508.448C55.7159 509.114 56.4167 509.914 56.9773 510.845C57.5379 511.77 57.9242 512.796 58.1364 513.925H55.2273Z" fill="black"/>
<path d="M100.938 529.925V506.652H114.984V509.152H103.756V517.016H114.256V519.516H103.756V527.425H115.165V529.925H100.938Z" fill="#0033FF"/>
<path d="M101.893 590.36H98.9382L107.484 567.087H110.393L118.938 590.36H115.984L109.029 570.769H108.847L101.893 590.36ZM102.984 581.269H114.893V583.769H102.984V581.269Z" fill="black"/>
<path d="M290.231 100.806C290.094 99.6547 289.541 98.7607 288.571 98.1244C287.602 97.488 286.412 97.1698 285.003 97.1698C283.973 97.1698 283.071 97.3365 282.299 97.6698C281.534 98.0032 280.935 98.4615 280.503 99.0448C280.079 99.6282 279.867 100.291 279.867 101.033C279.867 101.655 280.015 102.189 280.31 102.636C280.613 103.075 280.999 103.443 281.469 103.738C281.939 104.026 282.431 104.265 282.946 104.454C283.462 104.636 283.935 104.783 284.367 104.897L286.731 105.533C287.337 105.693 288.011 105.912 288.753 106.193C289.503 106.473 290.219 106.855 290.901 107.34C291.59 107.818 292.159 108.431 292.606 109.181C293.052 109.931 293.276 110.852 293.276 111.943C293.276 113.2 292.946 114.336 292.287 115.352C291.636 116.367 290.681 117.174 289.424 117.772C288.174 118.371 286.655 118.67 284.867 118.67C283.2 118.67 281.757 118.401 280.537 117.863C279.325 117.325 278.371 116.575 277.674 115.613C276.984 114.651 276.594 113.533 276.503 112.261H279.412C279.488 113.14 279.784 113.867 280.299 114.443C280.821 115.011 281.481 115.435 282.276 115.715C283.079 115.988 283.943 116.124 284.867 116.124C285.943 116.124 286.909 115.95 287.765 115.602C288.621 115.246 289.299 114.753 289.799 114.124C290.299 113.488 290.549 112.746 290.549 111.897C290.549 111.124 290.333 110.496 289.901 110.011C289.469 109.526 288.901 109.132 288.196 108.829C287.492 108.526 286.731 108.261 285.912 108.033L283.049 107.215C281.231 106.693 279.791 105.946 278.731 104.977C277.67 104.007 277.14 102.738 277.14 101.17C277.14 99.8668 277.492 98.7304 278.196 97.7607C278.909 96.7835 279.863 96.0259 281.06 95.488C282.265 94.9426 283.609 94.6698 285.094 94.6698C286.594 94.6698 287.927 94.9388 289.094 95.4767C290.261 96.007 291.185 96.7342 291.867 97.6585C292.556 98.5827 292.92 99.632 292.958 100.806H290.231Z" fill="white"/>
<path d="M276.318 57.8257V34.553H284.455C286.076 34.553 287.413 34.8333 288.466 35.3939C289.519 35.9469 290.303 36.6931 290.818 37.6325C291.333 38.5643 291.591 39.5984 291.591 40.7348C291.591 41.7348 291.413 42.5605 291.057 43.212C290.708 43.8636 290.246 44.3787 289.67 44.7575C289.102 45.1363 288.485 45.4166 287.818 45.5984V45.8257C288.53 45.8711 289.246 46.1211 289.966 46.5757C290.686 47.0302 291.288 47.6817 291.773 48.5302C292.258 49.3787 292.5 50.4166 292.5 51.6439C292.5 52.8105 292.235 53.8598 291.705 54.7916C291.174 55.7234 290.337 56.462 289.193 57.0075C288.049 57.553 286.561 57.8257 284.727 57.8257H276.318ZM279.136 55.3257H284.727C286.568 55.3257 287.875 54.9696 288.648 54.2575C289.428 53.5378 289.818 52.6666 289.818 51.6439C289.818 50.856 289.617 50.1287 289.216 49.462C288.814 48.7878 288.242 48.2499 287.5 47.8484C286.758 47.4393 285.879 47.2348 284.864 47.2348H279.136V55.3257ZM279.136 44.7802H284.364C285.212 44.7802 285.977 44.6136 286.659 44.2802C287.348 43.9469 287.894 43.4772 288.295 42.8711C288.705 42.2651 288.909 41.553 288.909 40.7348C288.909 39.712 288.553 38.8446 287.841 38.1325C287.129 37.4128 286 37.053 284.455 37.053H279.136V44.7802Z" fill="black"/>
<path d="M336.665 37.053V34.553H354.12V37.053H346.802V57.8257H343.984V37.053H336.665Z" fill="black"/>
<path d="M336.665 97.488V94.988H354.12V97.488H346.802V118.261H343.984V97.488H336.665Z" fill="white"/>
<path d="M513.231 97.5873V95.0873H530.685V97.5873H523.367V118.36H520.549V97.5873H513.231Z" fill="white"/>
<path d="M529.227 41.9249C528.977 41.1598 528.648 40.4742 528.239 39.8681C527.837 39.2545 527.356 38.7317 526.796 38.2999C526.243 37.8681 525.614 37.5386 524.909 37.3113C524.205 37.084 523.432 36.9704 522.591 36.9704C521.212 36.9704 519.958 37.3264 518.83 38.0386C517.701 38.7507 516.803 39.7999 516.136 41.1863C515.47 42.5727 515.136 44.2734 515.136 46.2886C515.136 48.3037 515.474 50.0045 516.148 51.3908C516.822 52.7772 517.735 53.8264 518.886 54.5386C520.038 55.2507 521.333 55.6067 522.773 55.6067C524.106 55.6067 525.28 55.3227 526.296 54.7545C527.318 54.1787 528.114 53.3681 528.682 52.3227C529.258 51.2696 529.546 50.031 529.546 48.6067L530.409 48.7886H523.409V46.2886H532.273V48.7886C532.273 50.7052 531.864 52.3719 531.046 53.7886C530.235 55.2052 529.114 56.3037 527.682 57.084C526.258 57.8567 524.621 58.2431 522.773 58.2431C520.712 58.2431 518.902 57.7583 517.341 56.7886C515.788 55.8189 514.576 54.4401 513.705 52.6522C512.841 50.8643 512.409 48.7431 512.409 46.2886C512.409 44.4477 512.655 42.7924 513.148 41.3227C513.648 39.8454 514.352 38.5878 515.261 37.5499C516.171 36.512 517.246 35.7166 518.489 35.1636C519.731 34.6105 521.099 34.334 522.591 34.334C523.818 34.334 524.962 34.5196 526.023 34.8908C527.091 35.2545 528.042 35.7734 528.875 36.4477C529.716 37.1143 530.417 37.9136 530.977 38.8454C531.538 39.7696 531.924 40.7961 532.136 41.9249H529.227Z" fill="black"/>
<path d="M575.893 57.9249H572.938L581.484 34.6522H584.393L592.938 57.9249H589.984L583.029 38.334H582.847L575.893 57.9249ZM576.984 48.834H588.893V51.334H576.984V48.834Z" fill="black"/>
<path d="M575.893 118.36H572.938L581.484 95.0873H584.393L592.938 118.36H589.984L583.029 98.7691H582.847L575.893 118.36ZM576.984 109.269H588.893V111.769H576.984V109.269Z" fill="black"/>
<path d="M297.14 342.724C297.14 345.178 296.696 347.299 295.81 349.087C294.924 350.875 293.708 352.254 292.162 353.224C290.617 354.193 288.852 354.678 286.867 354.678C284.882 354.678 283.117 354.193 281.571 353.224C280.026 352.254 278.81 350.875 277.924 349.087C277.037 347.299 276.594 345.178 276.594 342.724C276.594 340.269 277.037 338.148 277.924 336.36C278.81 334.572 280.026 333.193 281.571 332.224C283.117 331.254 284.882 330.769 286.867 330.769C288.852 330.769 290.617 331.254 292.162 332.224C293.708 333.193 294.924 334.572 295.81 336.36C296.696 338.148 297.14 340.269 297.14 342.724ZM294.412 342.724C294.412 340.708 294.075 339.008 293.401 337.621C292.734 336.235 291.829 335.186 290.685 334.474C289.549 333.762 288.276 333.405 286.867 333.405C285.458 333.405 284.181 333.762 283.037 334.474C281.901 335.186 280.996 336.235 280.321 337.621C279.655 339.008 279.321 340.708 279.321 342.724C279.321 344.739 279.655 346.44 280.321 347.826C280.996 349.212 281.901 350.262 283.037 350.974C284.181 351.686 285.458 352.042 286.867 352.042C288.276 352.042 289.549 351.686 290.685 350.974C291.829 350.262 292.734 349.212 293.401 347.826C294.075 346.44 294.412 344.739 294.412 342.724Z" fill="#0033FF"/>
<path d="M292.227 277.925C291.977 277.16 291.648 276.474 291.239 275.868C290.837 275.254 290.356 274.732 289.795 274.3C289.242 273.868 288.614 273.539 287.909 273.311C287.205 273.084 286.432 272.97 285.591 272.97C284.212 272.97 282.958 273.326 281.83 274.039C280.701 274.751 279.803 275.8 279.136 277.186C278.47 278.573 278.136 280.273 278.136 282.289C278.136 284.304 278.473 286.004 279.148 287.391C279.822 288.777 280.735 289.826 281.886 290.539C283.038 291.251 284.333 291.607 285.773 291.607C287.106 291.607 288.28 291.323 289.295 290.754C290.318 290.179 291.114 289.368 291.682 288.323C292.258 287.27 292.545 286.031 292.545 284.607L293.409 284.789H286.409V282.289H295.273V284.789C295.273 286.705 294.864 288.372 294.045 289.789C293.235 291.205 292.114 292.304 290.682 293.084C289.258 293.857 287.621 294.243 285.773 294.243C283.712 294.243 281.902 293.758 280.341 292.789C278.788 291.819 277.576 290.44 276.705 288.652C275.841 286.864 275.409 284.743 275.409 282.289C275.409 280.448 275.655 278.792 276.148 277.323C276.648 275.845 277.352 274.588 278.261 273.55C279.17 272.512 280.246 271.717 281.489 271.164C282.731 270.611 284.098 270.334 285.591 270.334C286.818 270.334 287.962 270.52 289.023 270.891C290.091 271.254 291.042 271.773 291.875 272.448C292.716 273.114 293.417 273.914 293.977 274.845C294.538 275.77 294.924 276.796 295.136 277.925H292.227Z" fill="black"/>
<path d="M338.893 293.925H335.938L344.484 270.652H347.393L355.938 293.925H352.984L346.029 274.334H345.847L338.893 293.925ZM339.984 284.834H351.893V287.334H339.984V284.834Z" fill="black"/>
<path d="M353.211 331.087H356.029V346.496C356.029 348.087 355.654 349.508 354.904 350.758C354.162 352 353.112 352.981 351.756 353.701C350.4 354.413 348.809 354.769 346.984 354.769C345.158 354.769 343.567 354.413 342.211 353.701C340.855 352.981 339.802 352 339.052 350.758C338.309 349.508 337.938 348.087 337.938 346.496V331.087H340.756V346.269C340.756 347.405 341.006 348.417 341.506 349.303C342.006 350.182 342.718 350.875 343.643 351.383C344.575 351.883 345.688 352.133 346.984 352.133C348.279 352.133 349.393 351.883 350.325 351.383C351.256 350.875 351.968 350.182 352.461 349.303C352.961 348.417 353.211 347.405 353.211 346.269V331.087Z" fill="#0033FF"/>
<path d="M290.105 572.905C289.969 571.754 289.416 570.86 288.446 570.224C287.477 569.587 286.287 569.269 284.878 569.269C283.848 569.269 282.946 569.436 282.174 569.769C281.408 570.102 280.81 570.561 280.378 571.144C279.954 571.727 279.742 572.39 279.742 573.133C279.742 573.754 279.889 574.288 280.185 574.735C280.488 575.174 280.874 575.542 281.344 575.837C281.814 576.125 282.306 576.364 282.821 576.553C283.336 576.735 283.81 576.883 284.242 576.996L286.605 577.633C287.211 577.792 287.886 578.012 288.628 578.292C289.378 578.572 290.094 578.955 290.776 579.44C291.465 579.917 292.033 580.53 292.48 581.28C292.927 582.03 293.151 582.951 293.151 584.042C293.151 585.299 292.821 586.436 292.162 587.451C291.511 588.466 290.556 589.273 289.299 589.871C288.049 590.47 286.53 590.769 284.742 590.769C283.075 590.769 281.632 590.5 280.412 589.962C279.2 589.424 278.246 588.674 277.549 587.712C276.859 586.75 276.469 585.633 276.378 584.36H279.287C279.363 585.239 279.658 585.966 280.174 586.542C280.696 587.11 281.355 587.534 282.151 587.815C282.954 588.087 283.818 588.224 284.742 588.224C285.818 588.224 286.783 588.049 287.639 587.701C288.496 587.345 289.174 586.852 289.674 586.224C290.174 585.587 290.424 584.845 290.424 583.996C290.424 583.224 290.208 582.595 289.776 582.11C289.344 581.625 288.776 581.231 288.071 580.928C287.367 580.625 286.605 580.36 285.787 580.133L282.924 579.315C281.105 578.792 279.666 578.046 278.605 577.076C277.545 576.106 277.014 574.837 277.014 573.269C277.014 571.966 277.367 570.83 278.071 569.86C278.783 568.883 279.738 568.125 280.935 567.587C282.139 567.042 283.484 566.769 284.969 566.769C286.469 566.769 287.802 567.038 288.969 567.576C290.136 568.106 291.06 568.833 291.742 569.758C292.431 570.682 292.795 571.731 292.833 572.905H290.105Z" fill="black"/>
<path d="M276.193 529.925V506.652H279.011V518.198H279.284L289.739 506.652H293.42L283.648 517.152L293.42 529.925H290.011L281.92 519.107L279.011 522.379V529.925H276.193Z" fill="black"/>
<path d="M336.54 509.152V506.652H353.995V509.152H346.677V529.925H343.859V509.152H336.54Z" fill="black"/>
<path d="M338.768 590.36H335.813L344.359 567.087H347.268L355.813 590.36H352.859L345.904 570.769H345.722L338.768 590.36ZM339.859 581.269H351.768V583.769H339.859V581.269Z" fill="black"/>
<path d="M527.231 337.005C527.094 335.853 526.541 334.959 525.572 334.323C524.602 333.687 523.412 333.368 522.003 333.368C520.973 333.368 520.072 333.535 519.299 333.868C518.534 334.202 517.935 334.66 517.503 335.243C517.079 335.827 516.867 336.49 516.867 337.232C516.867 337.853 517.015 338.387 517.31 338.834C517.613 339.274 518 339.641 518.469 339.937C518.939 340.225 519.431 340.463 519.947 340.653C520.462 340.834 520.935 340.982 521.367 341.096L523.731 341.732C524.337 341.891 525.011 342.111 525.753 342.391C526.503 342.671 527.219 343.054 527.901 343.539C528.59 344.016 529.159 344.63 529.606 345.38C530.053 346.13 530.276 347.05 530.276 348.141C530.276 349.399 529.947 350.535 529.287 351.55C528.636 352.565 527.681 353.372 526.424 353.971C525.174 354.569 523.655 354.868 521.867 354.868C520.2 354.868 518.757 354.6 517.537 354.062C516.325 353.524 515.371 352.774 514.674 351.812C513.984 350.85 513.594 349.732 513.503 348.459H516.412C516.488 349.338 516.784 350.065 517.299 350.641C517.822 351.209 518.481 351.634 519.276 351.914C520.079 352.187 520.943 352.323 521.867 352.323C522.943 352.323 523.909 352.149 524.765 351.8C525.621 351.444 526.299 350.952 526.799 350.323C527.299 349.687 527.549 348.944 527.549 348.096C527.549 347.323 527.333 346.694 526.901 346.209C526.469 345.725 525.901 345.331 525.197 345.028C524.492 344.725 523.731 344.459 522.912 344.232L520.049 343.414C518.231 342.891 516.791 342.145 515.731 341.175C514.67 340.206 514.14 338.937 514.14 337.368C514.14 336.065 514.492 334.929 515.197 333.959C515.909 332.982 516.863 332.225 518.06 331.687C519.265 331.141 520.609 330.868 522.094 330.868C523.594 330.868 524.928 331.137 526.094 331.675C527.261 332.206 528.185 332.933 528.867 333.857C529.556 334.781 529.92 335.831 529.958 337.005H527.231Z" fill="black"/>
<path d="M529.227 278.024C528.977 277.259 528.648 276.574 528.239 275.967C527.837 275.354 527.356 274.831 526.796 274.399C526.243 273.967 525.614 273.638 524.909 273.411C524.205 273.183 523.432 273.07 522.591 273.07C521.212 273.07 519.958 273.426 518.83 274.138C517.701 274.85 516.803 275.899 516.136 277.286C515.47 278.672 515.136 280.373 515.136 282.388C515.136 284.403 515.474 286.104 516.148 287.49C516.822 288.877 517.735 289.926 518.886 290.638C520.038 291.35 521.333 291.706 522.773 291.706C524.106 291.706 525.28 291.422 526.296 290.854C527.318 290.278 528.114 289.467 528.682 288.422C529.258 287.369 529.546 286.13 529.546 284.706L530.409 284.888H523.409V282.388H532.273V284.888C532.273 286.805 531.864 288.471 531.046 289.888C530.235 291.305 529.114 292.403 527.682 293.183C526.258 293.956 524.621 294.342 522.773 294.342C520.712 294.342 518.902 293.858 517.341 292.888C515.788 291.918 514.576 290.539 513.705 288.752C512.841 286.964 512.409 284.842 512.409 282.388C512.409 280.547 512.655 278.892 513.148 277.422C513.648 275.945 514.352 274.687 515.261 273.649C516.171 272.611 517.246 271.816 518.489 271.263C519.731 270.71 521.099 270.433 522.591 270.433C523.818 270.433 524.962 270.619 526.023 270.99C527.091 271.354 528.042 271.873 528.875 272.547C529.716 273.214 530.417 274.013 530.977 274.945C531.538 275.869 531.924 276.896 532.136 278.024H529.227Z" fill="black"/>
<path d="M590.211 270.752H593.029V286.161C593.029 287.752 592.654 289.172 591.904 290.422C591.162 291.664 590.112 292.646 588.756 293.365C587.4 294.077 585.809 294.433 583.984 294.433C582.158 294.433 580.567 294.077 579.211 293.365C577.855 292.646 576.802 291.664 576.052 290.422C575.309 289.172 574.938 287.752 574.938 286.161V270.752H577.756V285.933C577.756 287.07 578.006 288.081 578.506 288.967C579.006 289.846 579.718 290.539 580.643 291.047C581.575 291.547 582.688 291.797 583.984 291.797C585.279 291.797 586.393 291.547 587.325 291.047C588.256 290.539 588.968 289.846 589.461 288.967C589.961 288.081 590.211 287.07 590.211 285.933V270.752Z" fill="black"/>
<path d="M575.893 354.459H572.938L581.484 331.187H584.393L592.938 354.459H589.984L583.029 334.868H582.847L575.893 354.459ZM576.984 345.368H588.893V347.868H576.984V345.368Z" fill="black"/>
<path d="M527.105 573.005C526.969 571.853 526.416 570.959 525.446 570.323C524.477 569.687 523.287 569.368 521.878 569.368C520.848 569.368 519.946 569.535 519.174 569.868C518.408 570.202 517.81 570.66 517.378 571.243C516.954 571.827 516.742 572.49 516.742 573.232C516.742 573.853 516.889 574.387 517.185 574.834C517.488 575.274 517.874 575.641 518.344 575.937C518.814 576.225 519.306 576.463 519.821 576.653C520.336 576.834 520.81 576.982 521.242 577.096L523.605 577.732C524.211 577.891 524.886 578.111 525.628 578.391C526.378 578.671 527.094 579.054 527.776 579.539C528.465 580.016 529.033 580.63 529.48 581.38C529.927 582.13 530.151 583.05 530.151 584.141C530.151 585.399 529.821 586.535 529.162 587.55C528.511 588.565 527.556 589.372 526.299 589.971C525.049 590.569 523.53 590.868 521.742 590.868C520.075 590.868 518.632 590.6 517.412 590.062C516.2 589.524 515.246 588.774 514.549 587.812C513.859 586.85 513.469 585.732 513.378 584.459H516.287C516.363 585.338 516.658 586.065 517.174 586.641C517.696 587.209 518.355 587.634 519.151 587.914C519.954 588.187 520.818 588.323 521.742 588.323C522.818 588.323 523.783 588.149 524.639 587.8C525.496 587.444 526.174 586.952 526.674 586.323C527.174 585.687 527.424 584.944 527.424 584.096C527.424 583.323 527.208 582.694 526.776 582.209C526.344 581.725 525.776 581.331 525.071 581.028C524.367 580.725 523.605 580.459 522.787 580.232L519.924 579.414C518.105 578.891 516.666 578.145 515.605 577.175C514.545 576.206 514.014 574.937 514.014 573.368C514.014 572.065 514.367 570.929 515.071 569.959C515.783 568.982 516.738 568.225 517.935 567.687C519.139 567.141 520.484 566.868 521.969 566.868C523.469 566.868 524.802 567.137 525.969 567.675C527.136 568.206 528.06 568.933 528.742 569.857C529.431 570.781 529.795 571.831 529.833 573.005H527.105Z" fill="black"/>
<path d="M529.102 514.024C528.852 513.259 528.523 512.574 528.114 511.967C527.712 511.354 527.231 510.831 526.67 510.399C526.117 509.967 525.489 509.638 524.784 509.411C524.079 509.183 523.307 509.07 522.466 509.07C521.087 509.07 519.833 509.426 518.704 510.138C517.576 510.85 516.678 511.899 516.011 513.286C515.345 514.672 515.011 516.373 515.011 518.388C515.011 520.403 515.348 522.104 516.023 523.49C516.697 524.877 517.61 525.926 518.761 526.638C519.913 527.35 521.208 527.706 522.648 527.706C523.981 527.706 525.155 527.422 526.17 526.854C527.193 526.278 527.989 525.467 528.557 524.422C529.132 523.369 529.42 522.13 529.42 520.706L530.284 520.888H523.284V518.388H532.148V520.888C532.148 522.805 531.739 524.471 530.92 525.888C530.11 527.305 528.989 528.403 527.557 529.183C526.132 529.956 524.496 530.342 522.648 530.342C520.587 530.342 518.776 529.858 517.216 528.888C515.663 527.918 514.451 526.539 513.579 524.752C512.716 522.964 512.284 520.842 512.284 518.388C512.284 516.547 512.53 514.892 513.023 513.422C513.523 511.945 514.227 510.687 515.136 509.649C516.045 508.611 517.121 507.816 518.364 507.263C519.606 506.71 520.973 506.433 522.466 506.433C523.693 506.433 524.837 506.619 525.898 506.99C526.966 507.354 527.917 507.873 528.75 508.547C529.591 509.214 530.292 510.013 530.852 510.945C531.413 511.869 531.799 512.896 532.011 514.024H529.102Z" fill="black"/>
<path d="M575.768 530.024H572.813L581.359 506.752H584.268L592.813 530.024H589.859L582.904 510.433H582.722L575.768 530.024ZM576.859 520.933H588.768V523.433H576.859V520.933Z" fill="black"/>
<path d="M575.768 590.459H572.813L581.359 567.187H584.268L592.813 590.459H589.859L582.904 570.868H582.722L575.768 590.459ZM576.859 581.368H588.768V583.868H576.859V581.368Z" fill="black"/>
<path d="M40.6284 235.86V212.587H48.492C50.3178 212.587 51.8102 212.917 52.9693 213.576C54.1359 214.227 54.9996 215.11 55.5602 216.224C56.1208 217.337 56.4011 218.58 56.4011 219.951C56.4011 221.322 56.1208 222.568 55.5602 223.69C55.0072 224.811 54.1511 225.705 52.992 226.371C51.8329 227.03 50.3481 227.36 48.5375 227.36H42.9011V224.86H48.4465C49.6965 224.86 50.7003 224.644 51.4579 224.212C52.2155 223.78 52.7647 223.197 53.1056 222.462C53.4541 221.72 53.6284 220.883 53.6284 219.951C53.6284 219.019 53.4541 218.186 53.1056 217.451C52.7647 216.716 52.2117 216.14 51.4465 215.724C50.6814 215.299 49.6662 215.087 48.4011 215.087H43.4465V235.86H40.6284Z" fill="black"/>
<path d="M55.3524 159.425C55.1024 158.66 54.7729 157.974 54.3638 157.368C53.9622 156.754 53.4812 156.232 52.9206 155.8C52.3675 155.368 51.7388 155.039 51.0342 154.811C50.3297 154.584 49.5569 154.47 48.716 154.47C47.3372 154.47 46.0835 154.826 44.9547 155.539C43.8259 156.251 42.9282 157.3 42.2615 158.686C41.5948 160.073 41.2615 161.773 41.2615 163.789C41.2615 165.804 41.5986 167.504 42.2728 168.891C42.9471 170.277 43.86 171.326 45.0115 172.039C46.163 172.751 47.4585 173.107 48.8979 173.107C50.2312 173.107 51.4054 172.823 52.4206 172.254C53.4433 171.679 54.2388 170.868 54.8069 169.823C55.3827 168.77 55.6706 167.531 55.6706 166.107L56.5342 166.289H49.5342V163.789H58.3979V166.289C58.3979 168.205 57.9888 169.872 57.1706 171.289C56.36 172.705 55.2388 173.804 53.8069 174.584C52.3827 175.357 50.7463 175.743 48.8979 175.743C46.8372 175.743 45.0266 175.258 43.466 174.289C41.913 173.319 40.7009 171.94 39.8297 170.152C38.966 168.364 38.5342 166.243 38.5342 163.789C38.5342 161.948 38.7804 160.292 39.2728 158.823C39.7728 157.345 40.4774 156.088 41.3865 155.05C42.2956 154.012 43.3713 153.217 44.6138 152.664C45.8562 152.111 47.2236 151.834 48.716 151.834C49.9433 151.834 51.0872 152.02 52.1479 152.391C53.216 152.754 54.1668 153.273 55.0001 153.948C55.841 154.614 56.5418 155.414 57.1024 156.345C57.663 157.27 58.0494 158.296 58.2615 159.425H55.3524Z" fill="black"/>
<path d="M102.018 175.425H99.0634L107.609 152.152H110.518L119.063 175.425H116.109L109.154 155.834H108.973L102.018 175.425ZM103.109 166.334H115.018V168.834H103.109V166.334Z" fill="#0033FF"/>
<path d="M101.063 235.86V212.587H103.882V233.36H114.7V235.86H101.063Z" fill="#0033FF"/>
<path d="M53.3556 454.505C53.2193 453.353 52.6662 452.459 51.6965 451.823C50.7268 451.187 49.5375 450.868 48.1284 450.868C47.0981 450.868 46.1965 451.035 45.4238 451.368C44.6587 451.702 44.0602 452.16 43.6284 452.743C43.2041 453.327 42.992 453.99 42.992 454.732C42.992 455.353 43.1397 455.887 43.4352 456.334C43.7382 456.774 44.1246 457.141 44.5943 457.437C45.064 457.725 45.5564 457.963 46.0715 458.153C46.5867 458.334 47.0602 458.482 47.492 458.596L49.8556 459.232C50.4617 459.391 51.1359 459.611 51.8784 459.891C52.6284 460.171 53.3443 460.554 54.0261 461.039C54.7155 461.516 55.2837 462.13 55.7306 462.88C56.1776 463.63 56.4011 464.55 56.4011 465.641C56.4011 466.899 56.0715 468.035 55.4125 469.05C54.7609 470.065 53.8064 470.872 52.5488 471.471C51.2988 472.069 49.7799 472.368 47.992 472.368C46.3253 472.368 44.8822 472.1 43.6625 471.562C42.4503 471.024 41.4958 470.274 40.7988 469.312C40.1094 468.35 39.7193 467.232 39.6284 465.959H42.5375C42.6132 466.838 42.9087 467.565 43.4238 468.141C43.9465 468.709 44.6056 469.134 45.4011 469.414C46.2041 469.687 47.0678 469.823 47.992 469.823C49.0678 469.823 50.0337 469.649 50.8897 469.3C51.7458 468.944 52.4238 468.452 52.9238 467.823C53.4238 467.187 53.6738 466.444 53.6738 465.596C53.6738 464.823 53.4579 464.194 53.0261 463.709C52.5943 463.225 52.0261 462.831 51.3215 462.528C50.617 462.225 49.8556 461.959 49.0375 461.732L46.1738 460.914C44.3556 460.391 42.9162 459.645 41.8556 458.675C40.795 457.706 40.2647 456.437 40.2647 454.868C40.2647 453.565 40.617 452.429 41.3215 451.459C42.0337 450.482 42.9882 449.725 44.1852 449.187C45.3897 448.641 46.7344 448.368 48.2193 448.368C49.7193 448.368 51.0526 448.637 52.2193 449.175C53.3859 449.706 54.3102 450.433 54.992 451.357C55.6814 452.281 56.045 453.331 56.0829 454.505H53.3556Z" fill="black"/>
<path d="M55.3524 395.524C55.1024 394.759 54.7729 394.073 54.3638 393.467C53.9622 392.854 53.4812 392.331 52.9206 391.899C52.3675 391.467 51.7388 391.138 51.0342 390.911C50.3297 390.683 49.5569 390.57 48.716 390.57C47.3372 390.57 46.0835 390.926 44.9547 391.638C43.8259 392.35 42.9282 393.399 42.2615 394.786C41.5948 396.172 41.2615 397.873 41.2615 399.888C41.2615 401.903 41.5986 403.604 42.2728 404.99C42.9471 406.376 43.86 407.426 45.0115 408.138C46.163 408.85 47.4585 409.206 48.8979 409.206C50.2312 409.206 51.4054 408.922 52.4206 408.354C53.4433 407.778 54.2388 406.967 54.8069 405.922C55.3827 404.869 55.6706 403.63 55.6706 402.206L56.5342 402.388H49.5342V399.888H58.3979V402.388C58.3979 404.304 57.9888 405.971 57.1706 407.388C56.36 408.804 55.2388 409.903 53.8069 410.683C52.3827 411.456 50.7463 411.842 48.8979 411.842C46.8372 411.842 45.0266 411.358 43.466 410.388C41.913 409.418 40.7009 408.039 39.8297 406.251C38.966 404.464 38.5342 402.342 38.5342 399.888C38.5342 398.047 38.7804 396.392 39.2728 394.922C39.7728 393.445 40.4774 392.187 41.3865 391.149C42.2956 390.111 43.3713 389.316 44.6138 388.763C45.8562 388.21 47.2236 387.933 48.716 387.933C49.9433 387.933 51.0872 388.119 52.1479 388.49C53.216 388.854 54.1668 389.373 55.0001 390.047C55.841 390.714 56.5418 391.513 57.1024 392.445C57.663 393.369 58.0494 394.395 58.2615 395.524H55.3524Z" fill="black"/>
<path d="M119.518 388.251V411.524H116.791L104.109 393.251H103.882V411.524H101.063V388.251H103.791L116.518 406.57H116.745V388.251H119.518Z" fill="#0033FF"/>
<path d="M116.973 455.959C116.723 455.194 116.393 454.509 115.984 453.903C115.582 453.289 115.101 452.766 114.541 452.334C113.988 451.903 113.359 451.573 112.654 451.346C111.95 451.118 111.177 451.005 110.336 451.005C108.957 451.005 107.704 451.361 106.575 452.073C105.446 452.785 104.548 453.834 103.882 455.221C103.215 456.607 102.882 458.308 102.882 460.323C102.882 462.338 103.219 464.039 103.893 465.425C104.567 466.812 105.48 467.861 106.632 468.573C107.783 469.285 109.079 469.641 110.518 469.641C111.851 469.641 113.026 469.357 114.041 468.789C115.063 468.213 115.859 467.403 116.427 466.357C117.003 465.304 117.291 464.065 117.291 462.641L118.154 462.823H111.154V460.323H120.018V462.823C120.018 464.74 119.609 466.406 118.791 467.823C117.98 469.24 116.859 470.338 115.427 471.118C114.003 471.891 112.366 472.278 110.518 472.278C108.457 472.278 106.647 471.793 105.086 470.823C103.533 469.853 102.321 468.475 101.45 466.687C100.586 464.899 100.154 462.778 100.154 460.323C100.154 458.482 100.401 456.827 100.893 455.357C101.393 453.88 102.098 452.622 103.007 451.584C103.916 450.546 104.991 449.751 106.234 449.198C107.476 448.645 108.844 448.368 110.336 448.368C111.563 448.368 112.707 448.554 113.768 448.925C114.836 449.289 115.787 449.808 116.62 450.482C117.461 451.149 118.162 451.948 118.723 452.88C119.283 453.804 119.669 454.831 119.882 455.959H116.973Z" fill="#0033FF"/>
<path d="M290.231 218.405C290.094 217.254 289.541 216.36 288.571 215.724C287.602 215.087 286.412 214.769 285.003 214.769C283.973 214.769 283.071 214.936 282.299 215.269C281.534 215.602 280.935 216.061 280.503 216.644C280.079 217.227 279.867 217.89 279.867 218.633C279.867 219.254 280.015 219.788 280.31 220.235C280.613 220.674 280.999 221.042 281.469 221.337C281.939 221.625 282.431 221.864 282.946 222.053C283.462 222.235 283.935 222.383 284.367 222.496L286.731 223.133C287.337 223.292 288.011 223.512 288.753 223.792C289.503 224.072 290.219 224.455 290.901 224.94C291.59 225.417 292.159 226.03 292.606 226.78C293.052 227.53 293.276 228.451 293.276 229.542C293.276 230.799 292.946 231.936 292.287 232.951C291.636 233.966 290.681 234.773 289.424 235.371C288.174 235.97 286.655 236.269 284.867 236.269C283.2 236.269 281.757 236 280.537 235.462C279.325 234.924 278.371 234.174 277.674 233.212C276.984 232.25 276.594 231.133 276.503 229.86H279.412C279.488 230.739 279.784 231.466 280.299 232.042C280.821 232.61 281.481 233.034 282.276 233.315C283.079 233.587 283.943 233.724 284.867 233.724C285.943 233.724 286.909 233.549 287.765 233.201C288.621 232.845 289.299 232.352 289.799 231.724C290.299 231.087 290.549 230.345 290.549 229.496C290.549 228.724 290.333 228.095 289.901 227.61C289.469 227.125 288.901 226.731 288.196 226.428C287.492 226.125 286.731 225.86 285.912 225.633L283.049 224.815C281.231 224.292 279.791 223.546 278.731 222.576C277.67 221.606 277.14 220.337 277.14 218.769C277.14 217.466 277.492 216.33 278.196 215.36C278.909 214.383 279.863 213.625 281.06 213.087C282.265 212.542 283.609 212.269 285.094 212.269C286.594 212.269 287.927 212.538 289.094 213.076C290.261 213.606 291.185 214.333 291.867 215.258C292.556 216.182 292.92 217.231 292.958 218.405H290.231Z" fill="black"/>
<path d="M292.227 159.425C291.977 158.66 291.648 157.974 291.239 157.368C290.837 156.754 290.356 156.232 289.795 155.8C289.242 155.368 288.614 155.039 287.909 154.811C287.205 154.584 286.432 154.47 285.591 154.47C284.212 154.47 282.958 154.826 281.83 155.539C280.701 156.251 279.803 157.3 279.136 158.686C278.47 160.073 278.136 161.773 278.136 163.789C278.136 165.804 278.473 167.504 279.148 168.891C279.822 170.277 280.735 171.326 281.886 172.039C283.038 172.751 284.333 173.107 285.773 173.107C287.106 173.107 288.28 172.823 289.295 172.254C290.318 171.679 291.114 170.868 291.682 169.823C292.258 168.77 292.545 167.531 292.545 166.107L293.409 166.289H286.409V163.789H295.273V166.289C295.273 168.205 294.864 169.872 294.045 171.289C293.235 172.705 292.114 173.804 290.682 174.584C289.258 175.357 287.621 175.743 285.773 175.743C283.712 175.743 281.902 175.258 280.341 174.289C278.788 173.319 277.576 171.94 276.705 170.152C275.841 168.364 275.409 166.243 275.409 163.789C275.409 161.948 275.655 160.292 276.148 158.823C276.648 157.345 277.352 156.088 278.261 155.05C279.17 154.012 280.246 153.217 281.489 152.664C282.731 152.111 284.098 151.834 285.591 151.834C286.818 151.834 287.962 152.02 289.023 152.391C290.091 152.754 291.042 153.273 291.875 153.948C292.716 154.614 293.417 155.414 293.977 156.345C294.538 157.27 294.924 158.296 295.136 159.425H292.227Z" fill="black"/>
<path d="M356.665 159.425H353.847C353.681 158.614 353.389 157.902 352.972 157.289C352.563 156.675 352.063 156.16 351.472 155.743C350.889 155.319 350.241 155.001 349.529 154.789C348.817 154.576 348.075 154.47 347.302 154.47C345.893 154.47 344.616 154.826 343.472 155.539C342.336 156.251 341.431 157.3 340.756 158.686C340.09 160.073 339.756 161.773 339.756 163.789C339.756 165.804 340.09 167.504 340.756 168.891C341.431 170.277 342.336 171.326 343.472 172.039C344.616 172.751 345.893 173.107 347.302 173.107C348.075 173.107 348.817 173.001 349.529 172.789C350.241 172.576 350.889 172.262 351.472 171.845C352.063 171.421 352.563 170.902 352.972 170.289C353.389 169.667 353.681 168.955 353.847 168.152H356.665C356.453 169.342 356.067 170.406 355.506 171.345C354.946 172.285 354.249 173.084 353.415 173.743C352.582 174.395 351.647 174.891 350.609 175.232C349.578 175.573 348.476 175.743 347.302 175.743C345.317 175.743 343.552 175.258 342.006 174.289C340.461 173.319 339.245 171.94 338.359 170.152C337.472 168.364 337.029 166.243 337.029 163.789C337.029 161.334 337.472 159.213 338.359 157.425C339.245 155.637 340.461 154.258 342.006 153.289C343.552 152.319 345.317 151.834 347.302 151.834C348.476 151.834 349.578 152.004 350.609 152.345C351.647 152.686 352.582 153.186 353.415 153.845C354.249 154.497 354.946 155.292 355.506 156.232C356.067 157.164 356.453 158.228 356.665 159.425Z" fill="black"/>
<path d="M357.575 224.224C357.575 226.678 357.131 228.799 356.245 230.587C355.359 232.375 354.143 233.754 352.597 234.724C351.052 235.693 349.287 236.178 347.302 236.178C345.317 236.178 343.552 235.693 342.006 234.724C340.461 233.754 339.245 232.375 338.359 230.587C337.472 228.799 337.029 226.678 337.029 224.224C337.029 221.769 337.472 219.648 338.359 217.86C339.245 216.072 340.461 214.693 342.006 213.724C343.552 212.754 345.317 212.269 347.302 212.269C349.287 212.269 351.052 212.754 352.597 213.724C354.143 214.693 355.359 216.072 356.245 217.86C357.131 219.648 357.575 221.769 357.575 224.224ZM354.847 224.224C354.847 222.208 354.51 220.508 353.836 219.121C353.169 217.735 352.264 216.686 351.12 215.974C349.984 215.262 348.711 214.905 347.302 214.905C345.893 214.905 344.616 215.262 343.472 215.974C342.336 216.686 341.431 217.735 340.756 219.121C340.09 220.508 339.756 222.208 339.756 224.224C339.756 226.239 340.09 227.94 340.756 229.326C341.431 230.712 342.336 231.762 343.472 232.474C344.616 233.186 345.893 233.542 347.302 233.542C348.711 233.542 349.984 233.186 351.12 232.474C352.264 231.762 353.169 230.712 353.836 229.326C354.51 227.94 354.847 226.239 354.847 224.224Z" fill="black"/>
<path d="M527.231 218.505C527.094 217.353 526.541 216.459 525.572 215.823C524.602 215.187 523.412 214.868 522.003 214.868C520.973 214.868 520.072 215.035 519.299 215.368C518.534 215.702 517.935 216.16 517.503 216.743C517.079 217.327 516.867 217.99 516.867 218.732C516.867 219.353 517.015 219.887 517.31 220.334C517.613 220.774 518 221.141 518.469 221.437C518.939 221.725 519.431 221.963 519.947 222.153C520.462 222.334 520.935 222.482 521.367 222.596L523.731 223.232C524.337 223.391 525.011 223.611 525.753 223.891C526.503 224.171 527.219 224.554 527.901 225.039C528.59 225.516 529.159 226.13 529.606 226.88C530.053 227.63 530.276 228.55 530.276 229.641C530.276 230.899 529.947 232.035 529.287 233.05C528.636 234.065 527.681 234.872 526.424 235.471C525.174 236.069 523.655 236.368 521.867 236.368C520.2 236.368 518.757 236.1 517.537 235.562C516.325 235.024 515.371 234.274 514.674 233.312C513.984 232.35 513.594 231.232 513.503 229.959H516.412C516.488 230.838 516.784 231.565 517.299 232.141C517.822 232.709 518.481 233.134 519.276 233.414C520.079 233.687 520.943 233.823 521.867 233.823C522.943 233.823 523.909 233.649 524.765 233.3C525.621 232.944 526.299 232.452 526.799 231.823C527.299 231.187 527.549 230.444 527.549 229.596C527.549 228.823 527.333 228.194 526.901 227.709C526.469 227.225 525.901 226.831 525.197 226.528C524.492 226.225 523.731 225.959 522.912 225.732L520.049 224.914C518.231 224.391 516.791 223.645 515.731 222.675C514.67 221.706 514.14 220.437 514.14 218.868C514.14 217.565 514.492 216.429 515.197 215.459C515.909 214.482 516.863 213.725 518.06 213.187C519.265 212.641 520.609 212.368 522.094 212.368C523.594 212.368 524.928 212.637 526.094 213.175C527.261 213.706 528.185 214.433 528.867 215.357C529.556 216.281 529.92 217.331 529.958 218.505H527.231Z" fill="black"/>
<path d="M529.227 159.524C528.977 158.759 528.648 158.074 528.239 157.467C527.837 156.854 527.356 156.331 526.796 155.899C526.243 155.467 525.614 155.138 524.909 154.911C524.205 154.683 523.432 154.57 522.591 154.57C521.212 154.57 519.958 154.926 518.83 155.638C517.701 156.35 516.803 157.399 516.136 158.786C515.47 160.172 515.136 161.873 515.136 163.888C515.136 165.903 515.474 167.604 516.148 168.99C516.822 170.377 517.735 171.426 518.886 172.138C520.038 172.85 521.333 173.206 522.773 173.206C524.106 173.206 525.28 172.922 526.296 172.354C527.318 171.778 528.114 170.967 528.682 169.922C529.258 168.869 529.546 167.63 529.546 166.206L530.409 166.388H523.409V163.888H532.273V166.388C532.273 168.305 531.864 169.971 531.046 171.388C530.235 172.805 529.114 173.903 527.682 174.683C526.258 175.456 524.621 175.842 522.773 175.842C520.712 175.842 518.902 175.358 517.341 174.388C515.788 173.418 514.576 172.039 513.705 170.252C512.841 168.464 512.409 166.342 512.409 163.888C512.409 162.047 512.655 160.392 513.148 158.922C513.648 157.445 514.352 156.187 515.261 155.149C516.171 154.111 517.246 153.316 518.489 152.763C519.731 152.21 521.099 151.933 522.591 151.933C523.818 151.933 524.962 152.119 526.023 152.49C527.091 152.854 528.042 153.373 528.875 154.047C529.716 154.714 530.417 155.513 530.977 156.445C531.538 157.369 531.924 158.396 532.136 159.524H529.227Z" fill="black"/>
<path d="M575.893 175.524H572.938L581.484 152.252H584.393L592.938 175.524H589.984L583.029 155.933H582.847L575.893 175.524ZM576.984 166.433H588.893V168.933H576.984V166.433Z" fill="black"/>
<path d="M575.893 235.959H572.938L581.484 212.687H584.393L592.938 235.959H589.984L583.029 216.368H582.847L575.893 235.959ZM576.984 226.868H588.893V229.368H576.984V226.868Z" fill="black"/>
<path d="M290.231 454.505C290.094 453.353 289.541 452.459 288.571 451.823C287.602 451.187 286.412 450.868 285.003 450.868C283.973 450.868 283.071 451.035 282.299 451.368C281.534 451.702 280.935 452.16 280.503 452.743C280.079 453.327 279.867 453.99 279.867 454.732C279.867 455.353 280.015 455.887 280.31 456.334C280.613 456.774 280.999 457.141 281.469 457.437C281.939 457.725 282.431 457.963 282.946 458.153C283.462 458.334 283.935 458.482 284.367 458.596L286.731 459.232C287.337 459.391 288.011 459.611 288.753 459.891C289.503 460.171 290.219 460.554 290.901 461.039C291.59 461.516 292.159 462.13 292.606 462.88C293.052 463.63 293.276 464.55 293.276 465.641C293.276 466.899 292.946 468.035 292.287 469.05C291.636 470.065 290.681 470.872 289.424 471.471C288.174 472.069 286.655 472.368 284.867 472.368C283.2 472.368 281.757 472.1 280.537 471.562C279.325 471.024 278.371 470.274 277.674 469.312C276.984 468.35 276.594 467.232 276.503 465.959H279.412C279.488 466.838 279.784 467.565 280.299 468.141C280.821 468.709 281.481 469.134 282.276 469.414C283.079 469.687 283.943 469.823 284.867 469.823C285.943 469.823 286.909 469.649 287.765 469.3C288.621 468.944 289.299 468.452 289.799 467.823C290.299 467.187 290.549 466.444 290.549 465.596C290.549 464.823 290.333 464.194 289.901 463.709C289.469 463.225 288.901 462.831 288.196 462.528C287.492 462.225 286.731 461.959 285.912 461.732L283.049 460.914C281.231 460.391 279.791 459.645 278.731 458.675C277.67 457.706 277.14 456.437 277.14 454.868C277.14 453.565 277.492 452.429 278.196 451.459C278.909 450.482 279.863 449.725 281.06 449.187C282.265 448.641 283.609 448.368 285.094 448.368C286.594 448.368 287.927 448.637 289.094 449.175C290.261 449.706 291.185 450.433 291.867 451.357C292.556 452.281 292.92 453.331 292.958 454.505H290.231Z" fill="black"/>
<path d="M292.227 395.524C291.977 394.759 291.648 394.073 291.239 393.467C290.837 392.854 290.356 392.331 289.795 391.899C289.242 391.467 288.614 391.138 287.909 390.911C287.205 390.683 286.432 390.57 285.591 390.57C284.212 390.57 282.958 390.926 281.83 391.638C280.701 392.35 279.803 393.399 279.136 394.786C278.47 396.172 278.136 397.873 278.136 399.888C278.136 401.903 278.473 403.604 279.148 404.99C279.822 406.376 280.735 407.426 281.886 408.138C283.038 408.85 284.333 409.206 285.773 409.206C287.106 409.206 288.28 408.922 289.295 408.354C290.318 407.778 291.114 406.967 291.682 405.922C292.258 404.869 292.545 403.63 292.545 402.206L293.409 402.388H286.409V399.888H295.273V402.388C295.273 404.304 294.864 405.971 294.045 407.388C293.235 408.804 292.114 409.903 290.682 410.683C289.258 411.456 287.621 411.842 285.773 411.842C283.712 411.842 281.902 411.358 280.341 410.388C278.788 409.418 277.576 408.039 276.705 406.251C275.841 404.464 275.409 402.342 275.409 399.888C275.409 398.047 275.655 396.392 276.148 394.922C276.648 393.445 277.352 392.187 278.261 391.149C279.17 390.111 280.246 389.316 281.489 388.763C282.731 388.21 284.098 387.933 285.591 387.933C286.818 387.933 287.962 388.119 289.023 388.49C290.091 388.854 291.042 389.373 291.875 390.047C292.716 390.714 293.417 391.513 293.977 392.445C294.538 393.369 294.924 394.395 295.136 395.524H292.227Z" fill="black"/>
<path d="M336.665 390.751V388.251H354.12V390.751H346.802V411.524H343.984V390.751H336.665Z" fill="#0033FF"/>
<path d="M337.165 471.959V469.914L349.711 451.187H337.029V448.687H353.075V450.732L340.529 469.459H353.211V471.959H337.165Z" fill="black"/>
<path d="M512.503 448.786H515.731L522.185 459.65H522.458L528.912 448.786H532.14L523.731 462.468V472.059H520.912V462.468L512.503 448.786Z" fill="black"/>
<path d="M513.318 388.351H516.682L524.591 407.669H524.864L532.773 388.351H536.136V411.624H533.5V393.942H533.273L526 411.624H523.455L516.182 393.942H515.955V411.624H513.318V388.351Z" fill="#0033FF"/>
<path d="M575.893 411.624H572.938L581.484 388.351H584.393L592.938 411.624H589.984L583.029 392.033H582.847L575.893 411.624ZM576.984 402.533H588.893V405.033H576.984V402.533Z" fill="black"/>
<path d="M594.575 460.422C594.575 462.877 594.131 464.998 593.245 466.786C592.359 468.574 591.143 469.953 589.597 470.922C588.052 471.892 586.287 472.377 584.302 472.377C582.317 472.377 580.552 471.892 579.006 470.922C577.461 469.953 576.245 468.574 575.359 466.786C574.472 464.998 574.029 462.877 574.029 460.422C574.029 457.968 574.472 455.847 575.359 454.059C576.245 452.271 577.461 450.892 579.006 449.922C580.552 448.953 582.317 448.468 584.302 448.468C586.287 448.468 588.052 448.953 589.597 449.922C591.143 450.892 592.359 452.271 593.245 454.059C594.131 455.847 594.575 457.968 594.575 460.422ZM591.847 460.422C591.847 458.407 591.51 456.706 590.836 455.32C590.169 453.934 589.264 452.884 588.12 452.172C586.984 451.46 585.711 451.104 584.302 451.104C582.893 451.104 581.616 451.46 580.472 452.172C579.336 452.884 578.431 453.934 577.756 455.32C577.09 456.706 576.756 458.407 576.756 460.422C576.756 462.438 577.09 464.138 577.756 465.525C578.431 466.911 579.336 467.96 580.472 468.672C581.616 469.384 582.893 469.741 584.302 469.741C585.711 469.741 586.984 469.384 588.12 468.672C589.264 467.96 590.169 466.911 590.836 465.525C591.51 464.138 591.847 462.438 591.847 460.422Z" fill="black"/>
<path d="M177.731 102.261H174.912C174.746 101.45 174.454 100.738 174.037 100.124C173.628 99.5107 173.128 98.9956 172.537 98.5789C171.954 98.1547 171.306 97.8365 170.594 97.6244C169.882 97.4123 169.14 97.3062 168.367 97.3062C166.958 97.3062 165.681 97.6623 164.537 98.3744C163.401 99.0865 162.496 100.136 161.821 101.522C161.155 102.908 160.821 104.609 160.821 106.624C160.821 108.64 161.155 110.34 161.821 111.727C162.496 113.113 163.401 114.162 164.537 114.874C165.681 115.586 166.958 115.943 168.367 115.943C169.14 115.943 169.882 115.836 170.594 115.624C171.306 115.412 171.954 115.098 172.537 114.681C173.128 114.257 173.628 113.738 174.037 113.124C174.454 112.503 174.746 111.791 174.912 110.988H177.731C177.518 112.177 177.132 113.242 176.571 114.181C176.011 115.121 175.314 115.92 174.481 116.579C173.647 117.23 172.712 117.727 171.674 118.068C170.643 118.408 169.541 118.579 168.367 118.579C166.382 118.579 164.617 118.094 163.071 117.124C161.526 116.155 160.31 114.776 159.424 112.988C158.537 111.2 158.094 109.079 158.094 106.624C158.094 104.17 158.537 102.049 159.424 100.261C160.31 98.4729 161.526 97.0941 163.071 96.1244C164.617 95.1547 166.382 94.6698 168.367 94.6698C169.541 94.6698 170.643 94.8403 171.674 95.1812C172.712 95.5221 173.647 96.0221 174.481 96.6812C175.314 97.3327 176.011 98.1282 176.571 99.0676C177.132 99.9994 177.518 101.064 177.731 102.261Z" fill="black"/>
<path d="M157.818 34.553H161.182L169.091 53.8711H169.364L177.273 34.553H180.636V57.8257H178V40.1439H177.773L170.5 57.8257H167.955L160.682 40.1439H160.455V57.8257H157.818V34.553Z" fill="black"/>
<path d="M219.438 57.8257V34.553H233.484V37.053H222.256V44.9166H232.756V47.4166H222.256V55.3257H233.665V57.8257H219.438Z" fill="black"/>
<path d="M220.393 94.988L227.302 114.579H227.575L234.484 94.988H237.438L228.893 118.261H225.984L217.438 94.988H220.393Z" fill="black"/>
<path d="M159.003 354.36V331.087H161.821V351.86H172.64V354.36H159.003Z" fill="black"/>
<path d="M158.773 293.925H155.818L164.364 270.652H167.273L175.818 293.925H172.864L165.909 274.334H165.727L158.773 293.925ZM159.864 284.834H171.773V287.334H159.864V284.834Z" fill="black"/>
<path d="M220.393 270.652L227.302 290.243H227.575L234.484 270.652H237.438L228.893 293.925H225.984L217.438 270.652H220.393Z" fill="black"/>
<path d="M217.438 331.087H220.665L227.12 341.951H227.393L233.847 331.087H237.075L228.665 344.769V354.36H225.847V344.769L217.438 331.087Z" fill="#0033FF"/>
<path d="M177.605 574.36H174.787C174.621 573.549 174.329 572.837 173.912 572.224C173.503 571.61 173.003 571.095 172.412 570.678C171.829 570.254 171.181 569.936 170.469 569.724C169.757 569.512 169.014 569.405 168.242 569.405C166.833 569.405 165.556 569.762 164.412 570.474C163.276 571.186 162.371 572.235 161.696 573.621C161.03 575.008 160.696 576.708 160.696 578.724C160.696 580.739 161.03 582.44 161.696 583.826C162.371 585.212 163.276 586.262 164.412 586.974C165.556 587.686 166.833 588.042 168.242 588.042C169.014 588.042 169.757 587.936 170.469 587.724C171.181 587.512 171.829 587.197 172.412 586.78C173.003 586.356 173.503 585.837 173.912 585.224C174.329 584.602 174.621 583.89 174.787 583.087H177.605C177.393 584.277 177.007 585.341 176.446 586.28C175.886 587.22 175.189 588.019 174.355 588.678C173.522 589.33 172.586 589.826 171.549 590.167C170.518 590.508 169.416 590.678 168.242 590.678C166.257 590.678 164.492 590.193 162.946 589.224C161.401 588.254 160.185 586.875 159.299 585.087C158.412 583.299 157.969 581.178 157.969 578.724C157.969 576.269 158.412 574.148 159.299 572.36C160.185 570.572 161.401 569.193 162.946 568.224C164.492 567.254 166.257 566.769 168.242 566.769C169.416 566.769 170.518 566.94 171.549 567.28C172.586 567.621 173.522 568.121 174.355 568.78C175.189 569.432 175.886 570.227 176.446 571.167C177.007 572.099 177.393 573.163 177.605 574.36Z" fill="black"/>
<path d="M157.693 506.652H161.057L168.966 525.97H169.239L177.148 506.652H180.511V529.925H177.875V512.243H177.648L170.375 529.925H167.829L160.557 512.243H160.329V529.925H157.693V506.652Z" fill="black"/>
<path d="M219.313 529.925V506.652H233.359V509.152H222.131V517.016H232.631V519.516H222.131V527.425H233.54V529.925H219.313Z" fill="black"/>
<path d="M220.268 590.36H217.313L225.859 567.087H228.768L237.313 590.36H234.359L227.404 570.769H227.222L220.268 590.36ZM221.359 581.269H233.268V583.769H221.359V581.269Z" fill="black"/>
<path d="M396.833 118.261H393.878L402.424 94.988H405.333L413.878 118.261H410.924L403.969 98.6698H403.787L396.833 118.261ZM397.924 109.17H409.833V111.67H397.924V109.17Z" fill="white"/>
<path d="M410.602 41.8257C410.352 41.0605 410.023 40.3749 409.614 39.7689C409.212 39.1552 408.731 38.6325 408.17 38.2007C407.617 37.7689 406.989 37.4393 406.284 37.212C405.579 36.9848 404.807 36.8711 403.966 36.8711C402.587 36.8711 401.333 37.2272 400.204 37.9393C399.076 38.6514 398.178 39.7007 397.511 41.087C396.845 42.4734 396.511 44.1742 396.511 46.1893C396.511 48.2045 396.848 49.9052 397.523 51.2916C398.197 52.678 399.11 53.7272 400.261 54.4393C401.413 55.1514 402.708 55.5075 404.148 55.5075C405.481 55.5075 406.655 55.2234 407.67 54.6552C408.693 54.0795 409.489 53.2689 410.057 52.2234C410.632 51.1704 410.92 49.9317 410.92 48.5075L411.784 48.6893H404.784V46.1893H413.648V48.6893C413.648 50.606 413.239 52.2727 412.42 53.6893C411.61 55.106 410.489 56.2045 409.057 56.9848C407.632 57.7575 405.996 58.1439 404.148 58.1439C402.087 58.1439 400.276 57.659 398.716 56.6893C397.163 55.7196 395.951 54.3408 395.079 52.553C394.216 50.7651 393.784 48.6439 393.784 46.1893C393.784 44.3484 394.03 42.6931 394.523 41.2234C395.023 39.7461 395.727 38.4886 396.636 37.4507C397.545 36.4128 398.621 35.6174 399.864 35.0643C401.106 34.5113 402.473 34.2348 403.966 34.2348C405.193 34.2348 406.337 34.4204 407.398 34.7916C408.466 35.1552 409.417 35.6742 410.25 36.3484C411.091 37.0151 411.792 37.8143 412.352 38.7461C412.913 39.6704 413.299 40.6969 413.511 41.8257H410.602Z" fill="white"/>
<path d="M457.677 34.553L463.677 44.2348H463.859L469.859 34.553H473.177L465.859 46.1893L473.177 57.8257H469.859L463.859 48.3257H463.677L457.677 57.8257H454.359L461.859 46.1893L454.359 34.553H457.677Z" fill="black"/>
<path d="M456.313 118.261V94.988H464.177C465.995 94.988 467.487 95.2986 468.654 95.9198C469.821 96.5335 470.684 97.3782 471.245 98.4539C471.806 99.5297 472.086 100.753 472.086 102.124C472.086 103.496 471.806 104.711 471.245 105.772C470.684 106.833 469.825 107.666 468.665 108.272C467.506 108.871 466.025 109.17 464.222 109.17H457.859V106.624H464.131C465.374 106.624 466.374 106.443 467.131 106.079C467.897 105.715 468.45 105.2 468.79 104.533C469.139 103.859 469.313 103.056 469.313 102.124C469.313 101.193 469.139 100.378 468.79 99.6812C468.442 98.9842 467.885 98.4463 467.12 98.0676C466.355 97.6812 465.343 97.488 464.086 97.488H459.131V118.261H456.313ZM467.268 107.806L472.995 118.261H469.722L464.086 107.806H467.268Z" fill="white"/>
<path d="M395.878 354.36V331.087H403.742C405.56 331.087 407.052 331.398 408.219 332.019C409.386 332.633 410.249 333.477 410.81 334.553C411.371 335.629 411.651 336.852 411.651 338.224C411.651 339.595 411.371 340.811 410.81 341.871C410.249 342.932 409.389 343.765 408.23 344.371C407.071 344.97 405.59 345.269 403.787 345.269H397.424V342.724H403.696C404.939 342.724 405.939 342.542 406.696 342.178C407.461 341.815 408.014 341.299 408.355 340.633C408.704 339.958 408.878 339.155 408.878 338.224C408.878 337.292 408.704 336.477 408.355 335.78C408.007 335.083 407.45 334.546 406.685 334.167C405.92 333.78 404.908 333.587 403.651 333.587H398.696V354.36H395.878ZM406.833 343.905L412.56 354.36H409.287L403.651 343.905H406.833Z" fill="#0033FF"/>
<path d="M398.92 293.925L392.557 270.652H395.42L400.284 289.607H400.511L405.466 270.652H408.648L413.602 289.607H413.829L418.693 270.652H421.557L415.193 293.925H412.284L407.148 275.379H406.966L401.829 293.925H398.92Z" fill="black"/>
<path d="M456.313 293.925V270.652H470.359V273.152H459.131V281.016H469.631V283.516H459.131V291.425H470.54V293.925H456.313Z" fill="black"/>
<path d="M457.268 354.36H454.313L462.859 331.087H465.768L474.313 354.36H471.359L464.404 334.769H464.222L457.268 354.36ZM458.359 345.269H470.268V347.769H458.359V345.269Z" fill="black"/>
<path d="M408.48 572.905C408.344 571.754 407.791 570.86 406.821 570.224C405.852 569.587 404.662 569.269 403.253 569.269C402.223 569.269 401.321 569.436 400.549 569.769C399.783 570.102 399.185 570.561 398.753 571.144C398.329 571.727 398.117 572.39 398.117 573.133C398.117 573.754 398.264 574.288 398.56 574.735C398.863 575.174 399.249 575.542 399.719 575.837C400.189 576.125 400.681 576.364 401.196 576.553C401.711 576.735 402.185 576.883 402.617 576.996L404.98 577.633C405.586 577.792 406.261 578.012 407.003 578.292C407.753 578.572 408.469 578.955 409.151 579.44C409.84 579.917 410.408 580.53 410.855 581.28C411.302 582.03 411.526 582.951 411.526 584.042C411.526 585.299 411.196 586.436 410.537 587.451C409.886 588.466 408.931 589.273 407.674 589.871C406.424 590.47 404.905 590.769 403.117 590.769C401.45 590.769 400.007 590.5 398.787 589.962C397.575 589.424 396.621 588.674 395.924 587.712C395.234 586.75 394.844 585.633 394.753 584.36H397.662C397.738 585.239 398.033 585.966 398.549 586.542C399.071 587.11 399.73 587.534 400.526 587.815C401.329 588.087 402.193 588.224 403.117 588.224C404.193 588.224 405.158 588.049 406.014 587.701C406.871 587.345 407.549 586.852 408.049 586.224C408.549 585.587 408.799 584.845 408.799 583.996C408.799 583.224 408.583 582.595 408.151 582.11C407.719 581.625 407.151 581.231 406.446 580.928C405.742 580.625 404.98 580.36 404.162 580.133L401.299 579.315C399.48 578.792 398.041 578.046 396.98 577.076C395.92 576.106 395.389 574.837 395.389 573.269C395.389 571.966 395.742 570.83 396.446 569.86C397.158 568.883 398.113 568.125 399.31 567.587C400.514 567.042 401.859 566.769 403.344 566.769C404.844 566.769 406.177 567.038 407.344 567.576C408.511 568.106 409.435 568.833 410.117 569.758C410.806 570.682 411.17 571.731 411.208 572.905H408.48Z" fill="black"/>
<path d="M394.568 506.652H397.932L405.841 525.97H406.114L414.023 506.652H417.386V529.925H414.75V512.243H414.523L407.25 529.925H404.704L397.432 512.243H397.204V529.925H394.568V506.652Z" fill="black"/>
<path d="M456.188 529.925V506.652H470.233V509.152H459.006V517.016H469.506V519.516H459.006V527.425H470.415V529.925H456.188Z" fill="black"/>
<path d="M457.142 590.36H454.188L462.733 567.087H465.642L474.188 590.36H471.233L464.279 570.769H464.097L457.142 590.36ZM458.233 581.269H470.142V583.769H458.233V581.269Z" fill="black"/>
<path d="M166.185 235.86H159.003V212.587H166.503C168.761 212.587 170.693 213.053 172.299 213.985C173.905 214.909 175.136 216.239 175.992 217.974C176.848 219.701 177.276 221.769 177.276 224.178C177.276 226.602 176.844 228.69 175.981 230.44C175.117 232.182 173.859 233.523 172.208 234.462C170.556 235.394 168.549 235.86 166.185 235.86ZM161.821 233.36H166.003C167.927 233.36 169.522 232.989 170.787 232.246C172.052 231.504 172.996 230.447 173.617 229.076C174.238 227.705 174.549 226.072 174.549 224.178C174.549 222.299 174.242 220.682 173.628 219.326C173.015 217.962 172.098 216.917 170.878 216.19C169.659 215.455 168.14 215.087 166.321 215.087H161.821V233.36Z" fill="black"/>
<path d="M176.545 159.425H173.727C173.561 158.614 173.269 157.902 172.852 157.289C172.443 156.675 171.943 156.16 171.352 155.743C170.769 155.319 170.121 155.001 169.409 154.789C168.697 154.576 167.955 154.47 167.182 154.47C165.773 154.47 164.496 154.826 163.352 155.539C162.216 156.251 161.311 157.3 160.636 158.686C159.97 160.073 159.636 161.773 159.636 163.789C159.636 165.804 159.97 167.504 160.636 168.891C161.311 170.277 162.216 171.326 163.352 172.039C164.496 172.751 165.773 173.107 167.182 173.107C167.955 173.107 168.697 173.001 169.409 172.789C170.121 172.576 170.769 172.262 171.352 171.845C171.943 171.421 172.443 170.902 172.852 170.289C173.269 169.667 173.561 168.955 173.727 168.152H176.545C176.333 169.342 175.947 170.406 175.386 171.345C174.826 172.285 174.129 173.084 173.295 173.743C172.462 174.395 171.527 174.891 170.489 175.232C169.458 175.573 168.356 175.743 167.182 175.743C165.197 175.743 163.432 175.258 161.886 174.289C160.341 173.319 159.125 171.94 158.239 170.152C157.352 168.364 156.909 166.243 156.909 163.789C156.909 161.334 157.352 159.213 158.239 157.425C159.125 155.637 160.341 154.258 161.886 153.289C163.432 152.319 165.197 151.834 167.182 151.834C168.356 151.834 169.458 152.004 170.489 152.345C171.527 152.686 172.462 153.186 173.295 153.845C174.129 154.497 174.826 155.292 175.386 156.232C175.947 157.164 176.333 158.228 176.545 159.425Z" fill="black"/>
<path d="M219.438 175.425V152.152H233.484V154.652H222.256V162.516H232.756V165.016H222.256V172.925H233.665V175.425H219.438Z" fill="black"/>
<path d="M220.393 235.86H217.438L225.984 212.587H228.893L237.438 235.86H234.484L227.529 216.269H227.347L220.393 235.86ZM221.484 226.769H233.393V229.269H221.484V226.769Z" fill="black"/>
<path d="M171.731 454.505C171.594 453.353 171.041 452.459 170.071 451.823C169.102 451.187 167.912 450.868 166.503 450.868C165.473 450.868 164.571 451.035 163.799 451.368C163.034 451.702 162.435 452.16 162.003 452.743C161.579 453.327 161.367 453.99 161.367 454.732C161.367 455.353 161.515 455.887 161.81 456.334C162.113 456.774 162.499 457.141 162.969 457.437C163.439 457.725 163.931 457.963 164.446 458.153C164.962 458.334 165.435 458.482 165.867 458.596L168.231 459.232C168.837 459.391 169.511 459.611 170.253 459.891C171.003 460.171 171.719 460.554 172.401 461.039C173.09 461.516 173.659 462.13 174.106 462.88C174.552 463.63 174.776 464.55 174.776 465.641C174.776 466.899 174.446 468.035 173.787 469.05C173.136 470.065 172.181 470.872 170.924 471.471C169.674 472.069 168.155 472.368 166.367 472.368C164.7 472.368 163.257 472.1 162.037 471.562C160.825 471.024 159.871 470.274 159.174 469.312C158.484 468.35 158.094 467.232 158.003 465.959H160.912C160.988 466.838 161.284 467.565 161.799 468.141C162.321 468.709 162.981 469.134 163.776 469.414C164.579 469.687 165.443 469.823 166.367 469.823C167.443 469.823 168.409 469.649 169.265 469.3C170.121 468.944 170.799 468.452 171.299 467.823C171.799 467.187 172.049 466.444 172.049 465.596C172.049 464.823 171.833 464.194 171.401 463.709C170.969 463.225 170.401 462.831 169.696 462.528C168.992 462.225 168.231 461.959 167.412 461.732L164.549 460.914C162.731 460.391 161.291 459.645 160.231 458.675C159.17 457.706 158.64 456.437 158.64 454.868C158.64 453.565 158.992 452.429 159.696 451.459C160.409 450.482 161.363 449.725 162.56 449.187C163.765 448.641 165.109 448.368 166.594 448.368C168.094 448.368 169.427 448.637 170.594 449.175C171.761 449.706 172.685 450.433 173.367 451.357C174.056 452.281 174.42 453.331 174.458 454.505H171.731Z" fill="black"/>
<path d="M157.818 411.524V388.251H160.636V409.024H171.455V411.524H157.818Z" fill="black"/>
<path d="M219.438 411.524V388.251H233.484V390.751H222.256V398.615H232.756V401.115H222.256V409.024H233.665V411.524H219.438Z" fill="black"/>
<path d="M220.393 471.959H217.438L225.984 448.687H228.893L237.438 471.959H234.484L227.529 452.368H227.347L220.393 471.959ZM221.484 462.868H233.393V465.368H221.484V462.868Z" fill="black"/>
<path d="M395.878 235.86V212.587H409.924V215.087H398.696V222.951H409.196V225.451H398.696V233.36H410.105V235.86H395.878Z" fill="white"/>
<path d="M394.693 152.152H398.057L405.966 171.47H406.239L414.148 152.152H417.511V175.425H414.875V157.743H414.648L407.375 175.425H404.829L397.557 157.743H397.329V175.425H394.693V152.152Z" fill="white"/>
<path d="M464.768 168.152H467.859L470.45 171.561L471.131 172.47L474.995 177.607H471.904L469.359 174.198L468.722 173.334L464.768 168.152ZM475.95 163.789C475.95 166.243 475.506 168.364 474.62 170.152C473.734 171.94 472.518 173.319 470.972 174.289C469.427 175.258 467.662 175.743 465.677 175.743C463.692 175.743 461.927 175.258 460.381 174.289C458.836 173.319 457.62 171.94 456.734 170.152C455.847 168.364 455.404 166.243 455.404 163.789C455.404 161.334 455.847 159.213 456.734 157.425C457.62 155.637 458.836 154.258 460.381 153.289C461.927 152.319 463.692 151.834 465.677 151.834C467.662 151.834 469.427 152.319 470.972 153.289C472.518 154.258 473.734 155.637 474.62 157.425C475.506 159.213 475.95 161.334 475.95 163.789ZM473.222 163.789C473.222 161.773 472.885 160.073 472.211 158.686C471.544 157.3 470.639 156.251 469.495 155.539C468.359 154.826 467.086 154.47 465.677 154.47C464.268 154.47 462.991 154.826 461.847 155.539C460.711 156.251 459.806 157.3 459.131 158.686C458.465 160.073 458.131 161.773 458.131 163.789C458.131 165.804 458.465 167.504 459.131 168.891C459.806 170.277 460.711 171.326 461.847 172.039C462.991 172.751 464.268 173.107 465.677 173.107C467.086 173.107 468.359 172.751 469.495 172.039C470.639 171.326 471.544 170.277 472.211 168.891C472.885 167.504 473.222 165.804 473.222 163.789Z" fill="black"/>
<path d="M457.268 235.86H454.313L462.859 212.587H465.768L474.313 235.86H471.359L464.404 216.269H464.222L457.268 235.86ZM458.359 226.769H470.268V229.269H458.359V226.769Z" fill="black"/>
<path d="M408.731 455.405C408.594 454.254 408.041 453.36 407.072 452.724C406.102 452.087 404.912 451.769 403.503 451.769C402.473 451.769 401.572 451.936 400.799 452.269C400.034 452.602 399.435 453.061 399.003 453.644C398.579 454.227 398.367 454.89 398.367 455.633C398.367 456.254 398.515 456.788 398.81 457.235C399.113 457.674 399.5 458.042 399.969 458.337C400.439 458.625 400.931 458.864 401.447 459.053C401.962 459.235 402.435 459.383 402.867 459.496L405.231 460.133C405.837 460.292 406.511 460.512 407.253 460.792C408.003 461.072 408.719 461.455 409.401 461.94C410.09 462.417 410.659 463.03 411.106 463.78C411.553 464.53 411.776 465.451 411.776 466.542C411.776 467.799 411.447 468.936 410.787 469.951C410.136 470.966 409.181 471.773 407.924 472.371C406.674 472.97 405.155 473.269 403.367 473.269C401.7 473.269 400.257 473 399.037 472.462C397.825 471.924 396.871 471.174 396.174 470.212C395.484 469.25 395.094 468.133 395.003 466.86H397.912C397.988 467.739 398.284 468.466 398.799 469.042C399.322 469.61 399.981 470.034 400.776 470.315C401.579 470.587 402.443 470.724 403.367 470.724C404.443 470.724 405.409 470.549 406.265 470.201C407.121 469.845 407.799 469.352 408.299 468.724C408.799 468.087 409.049 467.345 409.049 466.496C409.049 465.724 408.833 465.095 408.401 464.61C407.969 464.125 407.401 463.731 406.697 463.428C405.992 463.125 405.231 462.86 404.412 462.633L401.549 461.815C399.731 461.292 398.291 460.546 397.231 459.576C396.17 458.606 395.64 457.337 395.64 455.769C395.64 454.466 395.992 453.33 396.697 452.36C397.409 451.383 398.363 450.625 399.56 450.087C400.765 449.542 402.109 449.269 403.594 449.269C405.094 449.269 406.428 449.538 407.594 450.076C408.761 450.606 409.685 451.333 410.367 452.258C411.056 453.182 411.42 454.231 411.458 455.405H408.731Z" fill="black"/>
<path d="M394.818 412.425V389.152H408.864V391.652H397.636V399.516H408.136V402.016H397.636V409.925H409.046V412.425H394.818Z" fill="#0033FF"/>
<path d="M457.393 412.425H454.438L462.984 389.152H465.893L474.438 412.425H471.484L464.529 392.834H464.347L457.393 412.425ZM458.484 403.334H470.393V405.834H458.484V403.334Z" fill="#0033FF"/>
<path d="M457.802 449.587L463.802 459.269H463.984L469.984 449.587H473.302L465.984 461.224L473.302 472.86H469.984L463.984 463.36H463.802L457.802 472.86H454.484L461.984 461.224L454.484 449.587H457.802Z" fill="black"/>
<rect x="200.41" y="314.5" width="235" height="49" rx="13.5" stroke="#0033FF" stroke-width="3"/>
<rect x="319.41" y="375.5" width="235" height="49" rx="13.5" stroke="#0033FF" stroke-width="3"/>
<rect x="81.41" y="19.5" width="57" height="524" rx="13.5" stroke="#0033FF" stroke-width="3"/>
</g>
<defs>
<filter id="filter0_d_3_9" x="0.5" y="0" width="631" height="632" filterUnits="userSpaceOnUse" color-interpolation-filters="sRGB">
<feFlood flood-opacity="0" result="BackgroundImageFix"/>
<feColorMatrix in="SourceAlpha" type="matrix" values="0 0 0 0 0 0 0 0 0 0 0 0 0 0 0 0 0 0 127 0" result="hardAlpha"/>
<feOffset dy="4"/>
<feGaussianBlur stdDeviation="2"/>
<feComposite in2="hardAlpha" operator="out"/>
<feColorMatrix type="matrix" values="0 0 0 0 0 0 0 0 0 0 0 0 0 0 0 0 0 0 0.25 0"/>
<feBlend mode="normal" in2="BackgroundImageFix" result="effect1_dropShadow_3_9"/>
<feBlend mode="normal" in="SourceGraphic" in2="effect1_dropShadow_3_9" result="shape"/>
</filter>
</defs>
</svg>
